<?xml version="1.0" standalone="no"?><!DOCTYPE svg PUBLIC "-//W3C//DTD SVG 1.1//EN" "http://www.w3.org/Graphics/SVG/1.1/DTD/svg11.dtd"><svg class="icon" width="200px" height="200.00px" viewBox="0 0 1024 1024" version="1.1" xmlns="http://www.w3.org/2000/svg"><path d="M989.967504 475.230499H774.464374v496.334247h-52.72336V288.465921h78.724907L512 0 223.534079 288.465921h78.724907v683.098825h-52.72336V475.230499H34.032496v548.769501h955.935008V475.230499z m-171.92713 92.626011h128.279103v82.974467h-128.279103V567.85651z m0 166.957304h128.279103v82.974468h-128.279103v-82.974468zM640.279102 489.635788a128.351129 128.351129 0 1 1-256.702257 0 128.351129 128.351129 0 0 1 256.702257 0zM414.332138 699.304776h195.335724v272.25997H414.332138v-272.25997zM77.608497 567.85651h128.279102v82.974467H77.608497V567.85651z m0 166.957304h128.279102v82.974468H77.608497v-82.974468z" fill="#13227a" /></svg>